<svg width="291" height="242" viewBox="0 0 291 242" fill="none" xmlns="http://www.w3.org/2000/svg">
<path d="M267.39 74C275.36 75.99 284.1 79.61 288.29 87.25C293.51 96.45 290 106.3 280.54 110.69C276.49 112.52 272.54 114.3 267.91 113.87C258.78 112.62 258.03 102.44 266.62 99.5C273.38 97.77 279.14 103.56 282.47 108.65C286.22 114.24 287.55 122.04 283.81 128.05C281.28 132.38 276.25 135.54 270.96 134.77C266.34 134.28 262.42 129.84 263.18 125.04C263.79 119.57 270.26 117.18 274.8 119.56C279.81 122.26 281.29 127.22 281.98 132.16C283.83 145.9 272.54 158.8 259.04 158.03L259 157.43C266.81 155.82 273.19 150.27 275.46 143.48C277.15 138.49 276.95 132.8 274.63 128.17C273.5 126.06 271.84 124.4 269.82 125.37C269.24 125.87 269.46 127.13 269.93 127.73C271.37 129.35 273.96 129.19 275.91 128.23C278.55 126.95 280.62 123.92 281.23 120.69C282.23 115.35 279.98 109.61 276.6 105.44C273.26 100.98 266.32 98.77 263.15 104.51C261.33 107.88 264.79 110.84 268.1 110.57C271.58 110.35 275.11 108.09 278.1 106.33C281.24 104.36 283.85 102.01 284.92 99.1C286.61 94.55 284.57 88.6 281.27 84.86C277.43 80.42 272.28 77.63 267.17 74.57L267.4 74.02L267.39 74Z" fill="#FEC048"/>
<path d="M171.941 0C183.911 5.9 186.931 23.88 177.551 33.56C174.221 37.31 167.921 38.99 163.541 35.84C158.381 32.42 159.041 25.41 164.351 22.55C173.211 17.64 180.881 27.72 182.921 35.44C184.671 41.4 184.801 48.01 182.821 54.01C181.651 57.94 179.021 61.55 176.871 64.86C174.101 68.93 172.681 73.61 176.881 77.19C181.091 80.98 186.961 81.96 191.961 84.85C200.721 89.22 204.131 100.79 198.461 108.84C194.731 114.25 186.981 116.66 181.111 114.15L181.271 113.57C193.131 115.06 201.241 102.27 193.081 93.1C187.761 88.04 177.941 87.61 172.531 81.71C166.411 75.77 167.601 68.03 172.491 61.88C176.061 57.28 179.641 53.11 180.891 47.27C182.631 40.12 181.131 31.28 175.501 26.2C174.101 24.99 172.431 24.15 170.711 23.95C167.841 23.43 164.121 26.14 164.251 28.92C164.391 31.45 167.791 32.71 169.981 32.06C174.681 30.67 177.401 25.54 178.361 20.78C179.671 13.82 177.451 5.83 171.611 0.51L171.941 0.0100002V0Z" fill="#FEC048"/>
<path d="M192.71 137.69C198.9 138.52 204.14 144.98 204.19 151.54C204.33 156.98 201.42 162.44 196.56 164.97C193.5 166.7 189.48 166.79 186.88 168.8C184.14 170.75 185.04 174.51 187.21 176.56C188.77 178.17 190.76 179.26 192.56 180.78C200.84 187.23 197.73 201.94 187.94 205.26C181.93 207.65 173.55 204.04 169.49 209.13C168.53 210.62 168.05 212.85 169.45 214.59L169.09 215.07C168.52 214.8 167.99 214.39 167.56 213.86C164.34 209.41 167.9 203.68 172.53 202.05C176.83 200.16 181.87 200.69 185.78 199.23C190.62 197.32 193.09 190.9 191.08 186.1C190.07 183.49 186.93 180.79 185.2 178.12C182.95 174.9 182.34 170.14 185.61 167.35C188.33 164.84 191.66 163.85 194.15 161.48C197.51 158.17 199.74 153.37 198.99 148.64C198.4 144.82 196.2 141.02 192.5 138.26L192.72 137.7L192.71 137.69Z" fill="#FEC048"/>
<path d="M130.56 186.55C122.27 194.94 132.11 205.15 134.56 214.02C136.3 219.77 135.24 227.23 129.26 230.59C124.46 233.24 117.19 231.07 116.06 225.3C114.6 216.77 124.4 211.5 131.75 212.34C144.47 212.98 153.39 226.47 150.94 238.54C149.98 244.84 142.46 249.66 137.13 244.74C130.53 238.32 135.5 229.01 142.6 225.61C150.42 221.47 160.61 222.38 167.44 228.07C174.41 233.52 179.98 246.41 171.48 252.96C166.16 256.8 159.14 252.6 158.37 246.52C157.4 235.25 171.06 228.28 180.72 231.18C186.13 232.7 190.55 236.73 192.44 241.64L191.9 241.91C189.16 237.66 184.68 234.86 180.06 234.18C173.56 233.24 165.97 236.86 164 243.11C163.54 244.78 163.73 246.31 164.93 247.53C165.94 248.43 166.8 248.71 167.89 247.92C170.59 245.66 169.03 240.86 167.47 237.93C163.31 229.92 153.16 226.52 144.95 230.38C132.55 235.93 140.33 249 147.27 241.07C148.62 239.3 149.2 236.89 149.28 234.46C149.58 227.22 145.51 219.55 138.63 216.81C132.79 214.38 123.87 215.59 121.3 221.92C120.71 223.61 121.17 224.9 122.23 225.64C125.44 227.6 129.03 225.25 129.94 221.55C131.22 217.16 129.39 212.53 127.75 208.22C126.34 204.63 124.82 200.6 124.8 196.57C124.74 192.51 126.5 187.96 130.21 186.06L130.54 186.56L130.56 186.55Z" fill="#FEC048"/>
<path d="M98.0602 126.03C99.3402 121.55 105.34 120.28 109.34 122.15C111.52 123.1 113.34 125.04 114.31 127.21C115.33 129.34 115.57 131.7 115.24 133.87C114.52 138.65 109.6 146.38 104.15 142.54C102.01 140.74 103.15 137.25 105.55 136.23C109 134.71 113.11 136.57 115.01 139.66C117.58 143.7 117.31 149.02 114.93 153.05C111.89 158.46 105.6 161.37 100.58 163.62C97.2902 165.12 94.2102 166.62 91.4202 169.15L90.9102 168.84C93.9902 159.08 106.32 156.46 110.62 147.95C111.84 144.95 111.4 140.65 108.32 138.96C107.11 138.35 105.62 138.46 105.07 139.67C104.82 140.22 104.9 140.8 105.36 141.2C105.8 141.61 106.58 141.8 107.24 141.66C110.26 140.63 110.32 136.18 110.25 133.56C110.02 130.74 109.46 128.02 107.15 126.29C104.68 124.63 101.18 124.21 98.5802 126.36L98.0702 126.05L98.0602 126.03Z" fill="#FEC048"/>
<path d="M51.3806 115.87C47.8606 122.25 43.6106 136.38 49.0306 141.81C50.3006 142.89 51.5306 143.39 52.9906 142.84C53.9006 142.45 54.7806 141.61 54.7806 140.61C54.7706 140.57 54.8706 140.65 55.0806 140.77C55.2606 140.86 55.3606 140.74 55.1506 140.74C54.9406 140.71 54.6506 140.74 54.4106 140.8C50.6806 141.88 47.4306 144.57 44.6406 147.41C39.7606 152.36 37.5706 158.14 39.6306 164.93C40.9806 169.37 43.7006 173.22 47.4306 175.8C49.3006 177.09 52.4906 178.73 53.7106 176.26C53.7406 176.08 53.6906 176.13 53.6706 176.11C52.5106 175.16 50.9606 176.03 49.8406 176.93C47.7506 178.65 45.7606 181.17 44.6006 183.67C42.1706 188.61 43.2506 195.66 48.5606 198.16C51.1606 199.34 54.6206 199.36 57.2506 197.34L57.6906 197.75C54.9206 201.7 48.9206 202.35 44.8206 200.01C36.4806 195.13 36.5406 183.47 41.8806 176.35C44.4906 172.88 47.2506 169.57 52.3106 169.26C61.9006 169.42 62.5006 181.59 53.2706 183.22C47.7906 183.78 43.2706 179.9 40.3406 175.87C36.3306 170.15 35.2706 162.83 37.1006 156.22C38.1806 152.3 40.7806 149.11 43.1906 146.13C45.4406 143.5 47.7406 140.93 50.6606 138.72C51.8506 137.87 53.3106 136.94 54.9006 136.74C57.5906 136.28 59.5506 138.81 59.3506 141.47C59.1506 145.45 55.6406 148.42 51.6506 148.45C47.0006 148.42 43.1606 144.35 42.2106 140.11C40.4406 131.32 44.5506 121.47 50.9006 115.51L51.3706 115.88L51.3806 115.87Z" fill="#FEC048"/>
<path d="M47.04 86.37L58.87 96.74" stroke="#FF5B00" stroke-width="6" stroke-miterlimit="10"/>
<path d="M84.0205 71.61V84.86" stroke="#FF5B00" stroke-width="6" stroke-miterlimit="10"/>
<path d="M246 144.4L257.8 141" stroke="#FF5B00" stroke-width="6" stroke-miterlimit="10"/>
<path d="M128.03 107.11V114.68" stroke="#FF5B00" stroke-width="6" stroke-miterlimit="10"/>
<path d="M93.7107 100.28L91.9707 109.97" stroke="#5D9CEC" stroke-width="6" stroke-miterlimit="10"/>
<path d="M224 206L226.5 216.91" stroke="#FF5B00" stroke-width="6" stroke-miterlimit="10"/>
<path d="M82.9102 152.88C83.7402 150.19 84.9102 147.6 86.3702 145.19" stroke="#5D9CEC" stroke-width="6" stroke-miterlimit="10"/>
<path d="M129.66 146.9L139.91 142.59" stroke="#FF5B00" stroke-width="6" stroke-miterlimit="10"/>
<path d="M121.75 172.64L126.63 163.67" stroke="#FF5B00" stroke-width="6" stroke-miterlimit="10"/>
<path d="M101.391 197.26V186.96" stroke="#FF5B00" stroke-width="6" stroke-miterlimit="10"/>
<path d="M71.9102 213.54C72.0502 210.41 72.9602 207.31 74.5502 204.61" stroke="#FF5B00" stroke-width="6" stroke-miterlimit="10"/>
<path d="M97.0508 219.22L100.041 227.43" stroke="#FF5B00" stroke-width="6" stroke-miterlimit="10"/>
<path d="M156.79 206.67V194.43" stroke="#5D9CEC" stroke-width="6" stroke-miterlimit="10"/>
<path d="M250 199C251.72 202.21 253.11 205.61 254.14 209.1" stroke="#5D9CEC" stroke-width="6" stroke-miterlimit="10"/>
<path d="M234.62 184.82L234 179" stroke="#FF5B00" stroke-width="6" stroke-miterlimit="10"/>
<path d="M279 174L282.4 184.11" stroke="#5D9CEC" stroke-width="6" stroke-miterlimit="10"/>
<path d="M172.801 141.05L178.961 130.71" stroke="#5D9CEC" stroke-width="6" stroke-miterlimit="10"/>
<path d="M212.17 102.73L217.1 96.91" stroke="#FF5B00" stroke-width="6" stroke-miterlimit="10"/>
<path d="M69.5508 242.63L73.9408 233.46" stroke="#FF5B00" stroke-width="6" stroke-miterlimit="10"/>
<path d="M22.7402 231.14L27.6002 224.05" stroke="#FF5B00" stroke-width="6" stroke-miterlimit="10"/>
<path d="M1 190.42L8.19 190" stroke="#5D9CEC" stroke-width="6" stroke-miterlimit="10"/>
<path d="M22.6504 160.83L29.5804 156.23" stroke="#FF5B00" stroke-width="6" stroke-miterlimit="10"/>
<path d="M24.5605 133.11V122.64" stroke="#5D9CEC" stroke-width="6" stroke-miterlimit="10"/>
</svg>
