<svg width="526" height="371" viewBox="0 0 526 371" fill="none" xmlns="http://www.w3.org/2000/svg">
<path d="M333.11 63.3727V333.18H169.835V63.3727C169.835 51.1922 179.718 41.309 191.899 41.309H311.046C323.226 41.309 333.11 51.1922 333.11 63.3727Z" fill="#E02727"/>
<path d="M347.559 333.18H155.386V370.748H347.559V333.18Z" fill="#E02727"/>
<path d="M337.444 194.961C341.013 194.296 355.072 192.056 361.892 200.018C365.389 204.107 365.577 209.251 365.259 216.88C364.045 246.5 360.809 252.323 360.202 267.466C359.783 277.999 365.259 296.971 380.011 296.552C387.308 296.35 395.848 290.498 396.454 282.638C396.873 277.161 399.994 270.399 384.404 216.865C377.815 194.267 393.435 192.027 404.633 193.747C423.416 196.637 424.861 206.751 447.98 196.637" stroke="#E02727" stroke-width="7" stroke-miterlimit="10"/>
<path d="M166.223 192.302C163.333 196.637 145.994 216.865 131.545 211.086C112.732 203.558 115.651 186.522 115.651 180.743C115.651 166.409 121.965 141.08 127.21 117.167C129.825 105.203 133.914 85.8844 131.545 63.7051C129.854 47.8544 127.123 22.3085 109.871 14.5782C99.7424 10.0412 88.6455 13.4367 82.418 16.0231" stroke="#E02727" stroke-width="7" stroke-miterlimit="10"/>
<path d="M494.188 187.288L516.454 182.029L521.496 168.215" stroke="#7F7F7E" stroke-width="9" stroke-miterlimit="10" stroke-linecap="round"/>
<path d="M38.1462 28.4782L16.1836 34.8792L5 25.3283" stroke="#7F7F7E" stroke-width="9" stroke-miterlimit="10" stroke-linecap="round"/>
<path d="M87.9582 21.2133L83.6881 6.53464C82.6382 2.92566 78.8615 0.851089 75.2525 1.90096L35.6007 13.4359C31.9917 14.4857 29.9172 18.2625 30.967 21.8715L35.2371 36.5501C36.287 40.1591 40.0638 42.2337 43.6727 41.1838L83.3245 29.6489C86.9335 28.599 89.008 24.8223 87.9582 21.2133Z" fill="#9CAAAB"/>
<path d="M500.732 192.859L497.218 177.981C496.354 174.323 492.688 172.058 489.03 172.922L448.841 182.415C445.183 183.279 442.918 186.945 443.782 190.603L447.296 205.481C448.16 209.139 451.826 211.404 455.484 210.54L495.673 201.047C499.331 200.183 501.596 196.517 500.732 192.859Z" fill="#9CAAAB"/>
<path d="M318.661 94.0915V131.124C318.661 150.154 303.243 165.571 284.214 165.571H218.731C199.701 165.571 184.284 150.154 184.284 131.124V94.0915C184.284 87.286 189.804 81.7664 196.609 81.7664H306.336C313.141 81.7664 318.661 87.286 318.661 94.0915Z" fill="white" stroke="#B70202" stroke-width="3.28" stroke-miterlimit="10"/>
<path d="M330.942 331.013H170.558V332.458H330.942V331.013Z" stroke="#B70202" stroke-width="2.32" stroke-miterlimit="10"/>
<path d="M343.225 180.02H333.11V213.253H343.225V180.02Z" fill="#B70202"/>
<path d="M169.835 180.02H159.721V213.253H169.835V180.02Z" fill="#B70202"/>
<path d="M253.466 149.128L270.357 122.455" stroke="black" stroke-width="3" stroke-miterlimit="10" stroke-linecap="round"/>
<path d="M273.869 165.571H227.632C227.632 152.798 237.977 142.453 250.75 142.453C263.523 142.453 273.869 152.798 273.869 165.571Z" fill="#FF9900" stroke="black" stroke-width="3" stroke-miterlimit="10"/>
<path d="M227.343 54.3132C235.323 54.3132 241.792 47.8441 241.792 39.8641C241.792 31.8841 235.323 25.415 227.343 25.415C219.363 25.415 212.894 31.8841 212.894 39.8641C212.894 47.8441 219.363 54.3132 227.343 54.3132Z" fill="white" stroke="#E02727" stroke-width="2.35" stroke-miterlimit="10"/>
<path d="M231.547 45.2969C234.922 45.2969 237.659 42.5605 237.659 39.185C237.659 35.8094 234.922 33.073 231.547 33.073C228.171 33.073 225.435 35.8094 225.435 39.185C225.435 42.5605 228.171 45.2969 231.547 45.2969Z" fill="black"/>
<path d="M269.838 54.3131C277.818 54.3131 284.287 47.8441 284.287 39.8641C284.287 31.8841 277.818 25.415 269.838 25.415C261.858 25.415 255.389 31.8841 255.389 39.8641C255.389 47.8441 261.858 54.3131 269.838 54.3131Z" fill="white" stroke="#E02727" stroke-width="2.35" stroke-miterlimit="10"/>
<path d="M233.007 41.7281C234.307 41.7281 235.362 40.6736 235.362 39.3729C235.362 38.0721 234.307 37.0177 233.007 37.0177C231.706 37.0177 230.651 38.0721 230.651 39.3729C230.651 40.6736 231.706 41.7281 233.007 41.7281Z" fill="white"/>
<path d="M274.042 45.2969C277.417 45.2969 280.154 42.5605 280.154 39.185C280.154 35.8094 277.417 33.073 274.042 33.073C270.666 33.073 267.93 35.8094 267.93 39.185C267.93 42.5605 270.666 45.2969 274.042 45.2969Z" fill="black"/>
<path d="M275.502 41.7281C276.802 41.7281 277.857 40.6736 277.857 39.3729C277.857 38.0721 276.802 37.0177 275.502 37.0177C274.201 37.0177 273.146 38.0721 273.146 39.3729C273.146 40.6736 274.201 41.7281 275.502 41.7281Z" fill="white"/>
<path d="M213.139 22.0484C217.343 16.3988 223.499 12.252 230.319 10.4892" stroke="#050101" stroke-width="2" stroke-miterlimit="10" stroke-linecap="round"/>
<path d="M282.437 21.167C281.093 16.7456 275.314 12.4109 268.682 11.6595" stroke="#050101" stroke-width="2" stroke-miterlimit="10" stroke-linecap="round"/>
</svg>
