<svg width="367" height="257" viewBox="0 0 367 257" fill="none" xmlns="http://www.w3.org/2000/svg">
<path d="M216.538 28.5527H134.184C125.765 28.5527 118.934 35.3839 118.934 43.803V230.293H231.788V43.803C231.788 35.3839 224.957 28.5527 216.538 28.5527V28.5527ZM230.79 229.294H119.932V43.803C119.932 35.9432 126.324 29.5514 134.184 29.5514H149.904C150.823 33.5462 154.408 36.5424 158.672 36.5424C162.937 36.5424 166.532 33.5462 167.441 29.5514H216.538C224.398 29.5514 230.79 35.9432 230.79 43.803V229.294Z" fill="#E02727"/>
<path d="M216.538 27.5539H134.184C125.225 27.5539 117.935 34.8445 117.935 43.803V231.292H232.787V43.803C232.787 34.8445 225.496 27.5539 216.538 27.5539V27.5539ZM230.789 229.294H119.932V43.803C119.932 35.9431 126.324 29.5513 134.184 29.5513H216.538C224.398 29.5513 230.789 35.9431 230.789 43.803V229.294Z" fill="#7F0101"/>
<path d="M230.789 43.803V229.294H119.932V43.803C119.932 35.9432 126.323 29.5514 134.183 29.5514H149.903C150.822 33.5462 154.407 36.5424 158.672 36.5424C162.936 36.5424 166.532 33.5462 167.44 29.5514H179.285C180.194 33.5462 183.779 36.5424 188.054 36.5424C192.328 36.5424 195.904 33.5462 196.823 29.5514H216.537C224.397 29.5514 230.789 35.9432 230.789 43.803V43.803Z" fill="#E02727"/>
<path d="M196.823 29.5514C195.904 33.5462 192.318 36.5424 188.054 36.5424C183.789 36.5424 180.194 33.5462 179.285 29.5514H196.823Z" fill="#E02727"/>
<path d="M241.775 230.293H108.946V256.259H241.775V230.293Z" fill="#E02727"/>
<path d="M234.784 134.756C237.251 134.296 246.968 132.748 251.682 138.251C254.099 141.078 254.229 144.633 254.009 149.906C253.171 170.38 250.933 174.405 250.514 184.871C250.224 192.152 254.009 205.265 264.206 204.976C269.25 204.836 275.152 200.791 275.572 195.358C275.861 191.573 278.019 186.899 267.242 149.896C262.688 134.277 273.484 132.729 281.224 133.917C294.208 135.914 295.206 142.905 311.186 135.914" stroke="#E02727" stroke-width="7" stroke-miterlimit="10"/>
<path d="M116.436 132.918C114.439 135.914 102.454 149.896 92.467 145.902C79.4638 140.698 81.4812 128.923 81.4812 124.929C81.4812 115.021 85.8456 97.5139 89.4709 80.9852C91.2786 72.7158 94.1049 59.363 92.467 44.0328C91.2985 33.0769 89.411 15.4196 77.4863 10.0765C70.4853 6.94051 62.8152 9.28749 58.5107 11.0752" stroke="#E02727" stroke-width="7" stroke-miterlimit="10"/>
<path d="M343.124 129.453L358.514 125.817L362 116.27" stroke="#7F7F7E" stroke-width="9" stroke-miterlimit="10" stroke-linecap="round"/>
<path d="M27.9105 19.6841L12.73 24.1084L5 17.5069" stroke="#7F7F7E" stroke-width="9" stroke-miterlimit="10" stroke-linecap="round"/>
<path d="M62.3406 14.6625L59.3891 4.51671C58.6635 2.0222 56.053 0.588269 53.5585 1.31394L26.1514 9.28682C23.6568 10.0125 22.2229 12.623 22.9486 15.1175L25.9001 25.2633C26.6257 27.7578 29.2362 29.1917 31.7307 28.4661L59.1378 20.4932C61.6323 19.7675 63.0663 17.157 62.3406 14.6625Z" fill="#9CAAAB"/>
<path d="M347.648 133.303L345.219 123.02C344.622 120.492 342.088 118.926 339.56 119.523L311.781 126.085C309.253 126.682 307.687 129.216 308.284 131.744L310.713 142.027C311.31 144.556 313.844 146.121 316.373 145.524L344.151 138.963C346.68 138.365 348.245 135.832 347.648 133.303Z" fill="#9CAAAB"/>
<path d="M128.921 105.923V80.3259C128.921 67.1729 139.577 56.5166 152.73 56.5166H197.992C211.145 56.5166 221.801 67.1729 221.801 80.3259V105.923C221.801 110.627 217.986 114.442 213.282 114.442H137.44C132.736 114.442 128.921 110.627 128.921 105.923Z" fill="white" stroke="#7F0101" stroke-width="4" stroke-miterlimit="10"/>
<path d="M231.788 225.299H118.934V230.293H231.788V225.299Z" fill="#7F0101"/>
<path d="M238.779 124.429H231.788V147.4H238.779V124.429Z" fill="#7F0101"/>
<path d="M118.933 124.429H111.942V147.4H118.933V124.429Z" fill="#7F0101"/>
<path d="M176.739 103.077L188.414 84.6404" stroke="black" stroke-width="3" stroke-miterlimit="10" stroke-linecap="round"/>
<path d="M190.841 114.442H158.882C158.882 105.613 166.033 98.4626 174.861 98.4626C183.69 98.4626 190.841 105.613 190.841 114.442Z" fill="#FF9900" stroke="black" stroke-width="3" stroke-miterlimit="10"/>
<path d="M168.66 27.5539C168.66 27.8935 168.64 28.2231 168.61 28.5526C168.58 28.8922 168.53 29.2318 168.46 29.5513H167.441C166.533 33.5462 162.947 36.5423 158.673 36.5423C154.398 36.5423 150.823 33.5462 149.904 29.5513H148.885C148.815 29.2318 148.765 28.8922 148.735 28.5526C148.706 28.2231 148.686 27.8935 148.686 27.5539C148.686 22.041 153.16 17.5668 158.673 17.5668C164.186 17.5668 168.66 22.041 168.66 27.5539V27.5539Z" fill="white"/>
<path d="M158.672 16.5681C152.62 16.5681 147.687 21.4917 147.687 27.5539C147.687 27.8935 147.707 28.2231 147.736 28.5526C147.756 28.8822 147.806 29.2218 147.866 29.5513H149.904C149.834 29.2218 149.774 28.8922 149.744 28.5526C149.704 28.2231 149.684 27.8935 149.684 27.5539C149.684 22.6003 153.719 18.5655 158.672 18.5655C163.626 18.5655 167.661 22.6003 167.661 27.5539C167.661 27.8935 167.641 28.2231 167.601 28.5526C167.571 28.8922 167.511 29.2218 167.441 29.5513H169.478C169.538 29.2218 169.588 28.8822 169.608 28.5526C169.638 28.2231 169.658 27.8935 169.658 27.5539C169.658 21.4917 164.735 16.5681 158.672 16.5681V16.5681Z" fill="#7F0101"/>
<path d="M161.588 31.3091C163.921 31.3091 165.812 29.4177 165.812 27.0845C165.812 24.7514 163.921 22.86 161.588 22.86C159.255 22.86 157.363 24.7514 157.363 27.0845C157.363 29.4177 159.255 31.3091 161.588 31.3091Z" fill="black"/>
<path d="M198.042 27.5539C198.042 27.8935 198.022 28.2231 197.992 28.5526C197.962 28.8922 197.912 29.2318 197.842 29.5513H196.823C195.904 33.5462 192.319 36.5423 188.055 36.5423C183.79 36.5423 180.195 33.5462 179.286 29.5513H178.267C178.197 29.2318 178.147 28.8922 178.117 28.5526C178.087 28.2231 178.067 27.8935 178.067 27.5539C178.067 22.041 182.532 17.5668 188.055 17.5668C193.577 17.5668 198.042 22.041 198.042 27.5539V27.5539Z" fill="white"/>
<path d="M188.054 16.5681C181.992 16.5681 177.068 21.4917 177.068 27.5539C177.068 27.8935 177.088 28.2231 177.118 28.5526C177.138 28.8822 177.188 29.2218 177.248 29.5513H179.286C179.216 29.2218 179.156 28.8922 179.126 28.5526C179.086 28.2231 179.066 27.8935 179.066 27.5539C179.066 22.6003 183.091 18.5655 188.054 18.5655C193.018 18.5655 197.043 22.6003 197.043 27.5539C197.043 27.8935 197.023 28.2231 196.983 28.5526C196.953 28.8922 196.893 29.2218 196.823 29.5513H198.86C198.92 29.2218 198.97 28.8822 198.99 28.5526C199.02 28.2231 199.04 27.8935 199.04 27.5539C199.04 21.4917 194.106 16.5681 188.054 16.5681V16.5681Z" fill="#7F0101"/>
<path d="M162.597 28.8422C163.496 28.8422 164.225 28.1134 164.225 27.2143C164.225 26.3153 163.496 25.5864 162.597 25.5864C161.698 25.5864 160.969 26.3153 160.969 27.2143C160.969 28.1134 161.698 28.8422 162.597 28.8422Z" fill="white"/>
<path d="M190.96 31.3091C193.293 31.3091 195.184 29.4177 195.184 27.0845C195.184 24.7514 193.293 22.86 190.96 22.86C188.627 22.86 186.735 24.7514 186.735 27.0845C186.735 29.4177 188.627 31.3091 190.96 31.3091Z" fill="black"/>
<path d="M191.97 28.8422C192.869 28.8422 193.598 28.1134 193.598 27.2143C193.598 26.3153 192.869 25.5864 191.97 25.5864C191.071 25.5864 190.342 26.3153 190.342 27.2143C190.342 28.1134 191.071 28.8422 191.97 28.8422Z" fill="white"/>
<path d="M160.739 7.25006C157.833 11.155 153.578 14.0213 148.864 15.2398" stroke="#050101" stroke-width="3" stroke-miterlimit="10" stroke-linecap="round"/>
<path d="M187.256 8.06897C188.185 11.125 192.18 14.1212 196.764 14.6405" stroke="#050101" stroke-width="3" stroke-miterlimit="10" stroke-linecap="round"/>
<path d="M128.921 105.923V80.3259C128.921 67.1729 139.577 56.5166 152.73 56.5166H197.992C211.145 56.5166 221.801 67.1729 221.801 80.3259V105.923C221.801 110.627 217.986 114.442 213.282 114.442H137.44C132.736 114.442 128.921 110.627 128.921 105.923Z" stroke="#7F0101" stroke-width="4" stroke-miterlimit="10"/>
</svg>
